<?xml version="1.0" encoding="UTF-8" standalone="no"?>
<svg
   height="48"
   viewBox="0 0 48 48"
   width="48"
   version="1.1"
   id="svg11"
   xmlns="http://www.w3.org/2000/svg"
   xmlns:svg="http://www.w3.org/2000/svg">
  <defs
     id="defs15" />
  <path
     d="M 22.39643,48 C 2.1765437,45.993899 -7.1133975,22.908423 6.2630775,7.9086714 18.640683,-5.9704904 41.732665,-0.76067188 47.122839,17.127065 51.917407,33.038343 38.643142,49.612126 22.39643,48 Z m 10.278589,-2.126522 c 0.04791,-0.03793 0.34191,-0.174017 0.653325,-0.30241 0.96932,-0.39966 2.873582,-1.403062 3.479778,-1.833551 0.218162,-0.154931 0.530117,-0.349466 0.693235,-0.43231 0.163117,-0.08285 0.555118,-0.362139 0.871105,-0.620647 0.315987,-0.258506 0.826468,-0.675763 1.134437,-0.927237 0.597834,-0.488211 1.465129,-1.348612 2.314773,-2.296469 0.287469,-0.320688 0.563928,-0.626034 0.614364,-0.678562 0.177538,-0.184887 1.08426,-1.418393 1.08426,-1.47498 0,-0.03153 0.176396,-0.296957 0.392003,-0.589824 0.215598,-0.292869 0.392002,-0.565416 0.392002,-0.605649 0,-0.04024 0.111715,-0.241727 0.248248,-0.447744 0.136544,-0.206018 0.327937,-0.550985 0.425332,-0.766584 0.0974,-0.215596 0.338483,-0.735658 0.535748,-1.155714 0.197265,-0.420035 0.358663,-0.841437 0.358663,-0.936428 0,-0.09501 0.0392,-0.172733 0.08711,-0.172733 0.04791,0 0.08711,-0.109755 0.08711,-0.24391 0,-0.134155 0.04578,-0.28969 0.101735,-0.345646 0.115711,-0.115711 0.306369,-0.595884 0.440385,-1.109068 0.05004,-0.191644 0.187713,-0.681638 0.305933,-1.088907 0.347057,-1.195576 0.356135,-1.233487 0.458819,-1.916433 0.419441,-2.789771 0.370725,-4.203239 -0.147275,-4.273113 -0.20886,-0.02815 -0.492084,-0.155099 -0.680187,-0.304883 -0.177269,-0.141162 -0.438351,-0.31752 -0.580171,-0.391911 -0.241986,-0.126934 -0.944791,-1.066511 -1.770738,-2.367085 -0.190881,-0.30059 -0.368076,-0.566131 -0.393769,-0.590084 -0.02569,-0.02396 -0.0954,-0.154245 -0.154893,-0.289543 -0.0595,-0.135288 -0.21806,-0.390088 -0.352374,-0.566223 C 43.139675,18.969703 42.810039,18.531596 42.54145,18.172235 41.92046,17.341417 41.096575,16.493207 39.992338,15.547859 39.513233,15.137691 39.036211,14.707786 38.932235,14.592476 38.82827,14.477202 38.503465,14.122282 38.210457,13.803769 37.917452,13.485256 37.488887,12.975656 37.25805,12.671284 36.488707,11.656806 36.026516,11.248618 35.070575,10.739241 34.367604,10.364669 33.675597,9.8922835 33.560936,9.70878 33.505777,9.6204563 33.414544,9.5481905 33.358199,9.5481905 c -0.05635,0 -0.180922,-0.1077287 -0.276832,-0.2393944 -0.506021,-0.6946555 -0.435544,1.0251639 0.08005,1.9533219 0.354799,0.638673 0.379924,0.728319 0.398647,1.42211 0.01099,0.407242 0.03195,0.858042 0.04657,1.00175 0.0438,0.430526 -0.356684,0.369496 -0.571603,-0.08711 -0.09021,-0.191643 -0.237518,-0.441927 -0.32735,-0.556188 -0.08984,-0.114261 -0.163806,-0.32986 -0.164372,-0.479103 -0.0015,-0.372407 -0.205851,-1.10907 -0.382664,-1.378904 -0.172939,-0.263943 -0.299242,-1.6565411 -0.165971,-1.8299269 0.0471,-0.061276 0.175977,-0.3466116 0.286401,-0.6340726 0.110423,-0.287469 0.312205,-0.666575 0.448395,-0.8424777 L 32.977083,7.5583792 32.894678,6.693507 C 32.849355,6.2178324 32.767667,5.6365657 32.713144,5.4017616 32.658623,5.166985 32.583041,4.7592984 32.545195,4.4957826 32.507342,4.2322764 32.358123,3.6834749 32.213598,3.276235 32.069074,2.8689935 31.9278,2.4319072 31.899665,2.3049629 31.864573,2.1466119 31.762184,2.0440206 31.573653,1.9783002 31.12524,1.8219838 31.003546,1.8554072 30.944394,2.1511455 c -0.02955,0.1477688 -0.126852,0.3731593 -0.21622,0.5008838 -0.08937,0.1277261 -0.183207,0.3932668 -0.208546,0.5900944 -0.02533,0.1968292 -0.106474,0.4908308 -0.180326,0.6533254 -0.164427,0.3618423 -0.620088,1.6653692 -0.846621,2.4220013 -0.181711,0.6069211 -0.240453,1.5771897 -0.130894,2.1620156 0.0888,0.4739929 -0.05788,0.8371818 -0.431306,1.0679994 -0.427693,0.2643235 -1.13137,0.1814123 -0.849848,-0.1001376 0.05949,-0.059487 0.108156,-0.1975252 0.108156,-0.3067511 0,-0.1092242 0.06437,-0.3594613 0.143038,-0.5560947 0.109097,-0.2726673 0.122689,-0.4238367 0.05725,-0.6370459 -0.05998,-0.1954259 -0.04832,-0.575422 0.03873,-1.2627552 0.133783,-1.0562922 0.116202,-1.1683506 -0.145983,-0.9311316 -0.150529,0.1362268 -0.400023,0.1550427 -2.2436,0.1692408 -1.893668,0.014583 -2.108402,0.031677 -2.466228,0.1962983 -0.215599,0.099181 -0.569838,0.2280676 -0.787202,0.2864202 -0.475573,0.1276598 -1.536121,1.1638899 -1.956761,1.9117882 -0.143733,0.25558 -0.383704,0.6531571 -0.533274,0.8835004 -0.14957,0.2303449 -0.298713,0.5614943 -0.33142,0.735874 -0.03784,0.2017158 -0.209455,0.4826718 -0.471735,0.7722888 -0.368151,0.406524 -0.433574,0.543533 -0.611503,1.280503 -0.109587,0.453922 -0.27184,1.065118 -0.360559,1.358181 -0.08872,0.293064 -0.188047,0.82226 -0.220717,1.17597 -0.07415,0.802867 -0.271925,1.430101 -0.714011,2.264505 -0.202253,0.381745 -0.369469,0.838213 -0.404899,1.105259 -0.03319,0.250247 -0.08274,0.513316 -0.110089,0.584595 -0.105267,0.274311 0.206947,0.115357 0.453078,-0.230679 0.140947,-0.198156 0.416365,-0.541155 0.612032,-0.762216 0.385443,-0.435469 0.844438,-1.093738 0.933825,-1.33932 0.113583,-0.311953 1.010948,-1.602556 1.407522,-2.024311 0.225233,-0.239553 0.553309,-0.608679 0.729053,-0.820271 0.175746,-0.211592 0.417537,-0.490086 0.537318,-0.61888 0.119781,-0.128793 0.315773,-0.378809 0.435554,-0.555603 0.855245,-1.262291 1.328261,-1.707648 1.601626,-1.507688 0.131433,0.0961 0.116743,0.150034 -0.159215,0.584622 -0.167205,0.26331 -0.499453,0.870744 -0.738326,1.349819 -0.238873,0.479104 -0.574084,1.10238 -0.744904,1.385037 -0.39232,0.64917 -0.372946,0.659615 0.261395,0.140834 1.228191,-1.004443 1.264429,-1.048672 1.784027,-2.179204 0.09154,-0.199162 0.499155,-0.219371 0.54161,-0.02685 0.07687,0.348573 -0.623629,1.486875 -1.183033,1.922474 -0.645799,0.502807 -1.258296,1.132857 -1.331793,1.36989 -0.07384,0.238167 -0.61705,1.073946 -0.906675,1.394977 -0.129677,0.143736 -0.273049,0.37893 -0.318617,0.522665 -0.10416,0.328549 -0.405623,0.397289 -0.551003,0.125643 -0.08111,-0.151549 -0.07159,-0.262381 0.04718,-0.54973 0.291391,-0.70496 0.307827,-0.773338 0.254363,-1.058337 -0.04528,-0.241382 0.01204,-0.397224 0.352234,-0.957613 0.223476,-0.36814 0.380173,-0.694934 0.348229,-0.726209 -0.101049,-0.0989 -1.219922,1.307448 -1.528129,1.9208 -0.326375,0.64946 -0.799719,1.405664 -1.134065,1.811623 -0.177529,0.215598 -0.463503,0.674231 -0.635513,1.019217 -0.31895,0.63963 -1.276973,1.768324 -1.500905,1.768324 -0.202978,0 -0.143195,-0.612423 0.105361,-1.079336 0.215894,-0.40556 0.198342,-0.56799 -0.0621,-0.574438 -0.191932,-0.0048 0.04927,-2.095858 0.34178,-2.963063 0.498839,-1.478975 0.448999,-3.021228 -0.06508,-2.013533 -0.09497,0.186153 -0.324246,0.450755 -0.509505,0.587995 -0.495997,0.367444 -0.857336,0.815355 -1.049231,1.300573 -0.09347,0.236394 -0.272138,0.652685 -0.397039,0.925101 -0.25333,0.55249 -0.265931,0.700863 -0.11453,1.348334 0.121221,0.518408 0.24822,0.586015 0.351574,0.187155 0.03969,-0.153148 0.147489,-0.374218 0.239551,-0.491266 0.09207,-0.11705 0.168647,-0.315328 0.17017,-0.440628 0.0034,-0.277759 0.183829,-0.532689 0.377052,-0.532689 0.173068,0 0.176759,0.09261 0.02672,0.671034 -0.06387,0.246215 -0.124882,0.690261 -0.135576,0.98679 -0.01165,0.322974 -0.107637,0.771006 -0.239404,1.117526 -0.120979,0.318132 -0.240351,0.676424 -0.265271,0.796204 -0.06722,0.323029 -0.445951,1.288866 -0.700137,1.785512 -0.122541,0.239432 -0.292775,0.638728 -0.378307,0.88733 -0.08553,0.248603 -0.44268,0.934662 -0.793668,1.524692 -0.350988,0.589965 -0.652582,1.111856 -0.670218,1.159803 -0.04638,0.126033 -0.693864,1.187584 -1.182196,1.938175 -0.277081,0.425899 -1.9652157,4.394279 -1.9652157,4.619697 0,0.252932 -0.5594031,1.24408 -0.8710584,1.543368 -0.5749025,0.552082 -0.8524304,2.013533 -0.4573799,2.408621 0.059889,0.05989 0.1094379,0.189246 0.110116,0.287461 6.475e-4,0.09821 0.1539291,0.347875 0.340563,0.554795 l 0.3393377,0.376215 -0.00906,1.590756 c -0.010245,1.798149 0.031837,1.941708 0.8011201,2.734484 l 0.3532932,0.364043 0.645529,-0.0066 c 0.355039,-0.0037 0.718275,0.03114 0.807197,0.07732 0.311285,0.16165 1.210536,0.441406 1.599026,0.497446 0.215597,0.0311 0.51878,0.09584 0.673739,0.143874 0.3545,0.109875 0.63292,0.02598 0.63292,-0.190724 0,-0.24888 0.259,-0.862994 0.537586,-1.274648 0.135522,-0.200277 0.24641,-0.439632 0.24641,-0.531918 0,-0.207282 0.435534,-0.769715 1.120683,-1.447199 0.482877,-0.477468 0.603475,-0.671583 0.885862,-1.425919 0.236217,-0.630997 1.52367,-1.264521 1.6899,-0.831486 0.09213,0.2401 -0.271061,1.009367 -0.568185,1.203474 -0.146513,0.09571 -0.340163,0.316051 -0.43034,0.489659 -0.09018,0.173608 -0.287395,0.428407 -0.438267,0.566224 -0.15087,0.137816 -0.319201,0.30229 -0.374069,0.365501 -0.05487,0.06321 -0.19169,0.200407 -0.304046,0.304884 -1.218712,1.133227 -1.120683,2.919018 0.118787,2.16313 0.648715,-0.395607 0.823289,-0.713071 0.989204,-1.798985 0.130364,-0.853081 0.607601,-1.453424 1.578955,-1.986308 0.359334,-0.197116 0.849328,-0.537865 1.088907,-0.757207 0.723663,-0.662608 1.749925,-1.238318 2.626792,-1.473587 0.492391,-0.132111 1.22373,-0.465147 1.623741,-0.739359 0.181795,-0.124639 0.358897,-0.226617 0.393555,-0.226617 0.118944,0 0.713239,-0.441825 0.713239,-0.530246 0,-0.08504 -0.597425,-0.379216 -0.658381,-0.324182 -1.473679,1.33068 -3.075305,1.651991 -1.870532,0.375325 0.254327,-0.269499 1.055549,-1.501369 1.339322,-2.059249 0.280852,-0.552128 0.843555,-0.678004 1.084724,-0.242664 0.261936,0.472813 0.313217,0.507526 0.882051,0.597258 0.307689,0.04854 0.59973,0.128542 0.648977,0.177789 0.04925,0.04924 0.161733,0.08954 0.249968,0.08954 0.08824,0 0.411961,0.117597 0.719389,0.261332 0.761491,0.356024 1.110186,0.26607 2.016228,-0.520164 0.198631,-0.172355 0.571027,-0.42759 0.827546,-0.56719 0.660536,-0.359445 1.220386,-0.804773 1.411424,-1.122636 0.09012,-0.14996 0.238903,-0.343844 0.330612,-0.430861 0.227464,-0.215802 0.595214,-0.809511 0.705434,-1.138802 0.186682,-0.557843 0.609188,-0.770672 0.75402,-0.379831 0.162672,0.438991 -0.768693,2.190727 -1.840984,3.462682 -0.896427,1.06326 -1.634521,2.350174 -1.634521,2.849888 0,0.06867 0.345655,0.01267 0.392812,-0.06363 0.07845,-0.126937 0.63724,-0.347123 0.880927,-0.347123 0.327127,0 0.259288,0.299372 -0.214715,0.947577 -0.232025,0.317277 -0.508874,0.772873 -0.615229,1.012434 -0.106353,0.239552 -0.277898,0.601412 -0.381205,0.804131 -0.25021,0.491007 -0.111808,0.654356 0.241744,0.285323 0.703204,-0.733987 0.881448,0.09828 0.27487,1.283478 -0.06768,0.13223 -0.149384,0.41682 -0.181571,0.632418 -0.03219,0.215596 -0.07914,0.499796 -0.104328,0.631554 -0.05945,0.310875 0.190501,0.333037 0.328958,0.02916 0.173347,-0.380462 0.684397,-0.346184 0.684397,0.04591 0,0.08944 -0.08296,0.368838 -0.18435,0.620888 -0.132379,0.329077 -0.203072,0.763367 -0.250766,1.540579 -0.05413,0.882136 -0.09476,1.10303 -0.219677,1.194369 -0.251307,0.183762 -0.477646,8.7e-5 -0.477646,-0.387524 0,-0.179296 -0.05265,-0.40332 -0.117002,-0.497818 -0.131944,-0.18026 -0.413486,-1.225589 -0.413486,-1.504343 0,-0.226868 -0.588411,-1.48678 -0.828438,-1.773804 -0.107264,-0.128283 -0.261656,-0.520285 -0.343089,-0.871107 -0.08143,-0.350821 -0.207124,-0.888202 -0.279312,-1.194181 -0.07219,-0.305989 -0.110582,-0.635374 -0.08532,-0.731962 0.103903,-0.397326 -0.288351,-1.887629 -0.583775,-2.217859 -0.493181,-0.551395 -1.094109,0.153649 -0.712476,0.83589 0.204801,0.366105 0.567543,1.408078 0.567543,1.630246 0,0.111241 0.0392,0.226488 0.08711,0.2561 0.04791,0.02961 0.08713,0.237722 0.08716,0.462472 5e-5,0.433305 0.433993,2.72575 0.613249,3.239771 0.142899,0.409723 0.303471,0.742193 0.610026,1.263128 0.140976,0.239553 0.334393,0.692554 0.42982,1.006673 0.09862,0.324646 0.261155,0.647342 0.376615,0.74773 0.111716,0.09714 0.290703,0.388927 0.397763,0.64842 0.335583,0.81346 1.00175,1.112506 1.536028,0.689628 z m -18.68488,-6.314707 c -0.119781,-0.06847 -0.315773,-0.126415 -0.435554,-0.128765 -0.880342,-0.01729 -0.723255,-0.621585 0.245843,-0.94572 0.159168,-0.05324 0.439205,-0.215459 0.622309,-0.360476 0.711509,-0.563529 1.120497,0.120906 0.440161,0.736599 -0.0913,0.08263 -0.19101,0.264091 -0.22158,0.403255 -0.08378,0.381447 -0.316051,0.486713 -0.651189,0.295125 z m -1.267588,-1.388288 c -0.641525,-0.979077 -0.28929,-1.947003 0.810208,-2.226501 0.472405,-0.120078 0.467368,-0.22843 -0.02062,-0.444297 -0.616307,-0.272622 -0.672188,-0.82697 -0.08827,-0.875705 1.417651,-0.118313 1.612499,0.03158 1.610455,1.238782 -0.0025,1.489847 -1.722607,3.20688 -2.3118,2.307711 z m 2.839389,-1.415048 c -0.195835,-0.137165 -0.209549,-0.724175 -0.05072,-2.171029 0.01164,-0.105973 0.183737,-0.450105 0.382452,-0.764753 0.198715,-0.314638 0.361301,-0.614188 0.361301,-0.665646 0,-0.515481 0.493665,-0.748955 0.902912,-0.427041 0.314129,0.247097 0.291169,0.470722 -0.131877,1.284499 -0.357503,0.687704 -0.359983,0.698827 -0.229805,1.030646 0.163302,0.416207 0.136339,0.497056 -0.335723,1.006766 -0.208851,0.225521 -0.379737,0.469143 -0.379737,0.541379 0,0.227017 -0.295989,0.321272 -0.518806,0.165207 z M 46.065059,28.760956 C 45.840041,28.4749 45.258484,27.289972 45.173037,26.94348 c -0.03758,-0.152385 -0.148204,-0.473064 -0.245823,-0.712615 -0.09763,-0.239553 -0.199086,-0.494353 -0.225475,-0.566224 -0.02638,-0.07187 -0.08287,-0.18947 -0.125541,-0.261332 -0.04266,-0.07187 -0.131107,-0.246427 -0.196549,-0.387924 -0.06544,-0.141496 -0.289562,-0.513093 -0.498051,-0.825789 -0.20849,-0.312688 -0.492995,-0.784926 -0.632233,-1.049417 -0.139237,-0.264482 -0.290191,-0.539677 -0.335451,-0.61154 -0.1013,-0.16084 -0.371068,-0.804893 -0.655064,-1.563903 -0.139116,-0.371801 -0.362668,-0.638412 -0.701847,-0.837023 -0.224702,-0.131572 -0.08365,-0.299503 0.251576,-0.299503 0.35109,0 0.855886,0.491983 1.314232,1.280875 0.172688,0.297235 0.351286,0.563482 0.396899,0.591674 0.04561,0.02819 0.124223,0.204615 0.174695,0.392058 0.05047,0.187443 0.184256,0.450718 0.297292,0.585059 0.113044,0.134339 0.27068,0.400188 0.35031,0.590772 0.07963,0.190584 0.216732,0.425452 0.30466,0.521921 0.08793,0.09648 0.228578,0.311153 0.312557,0.477058 0.08398,0.165905 0.245359,0.374553 0.358636,0.463652 0.113276,0.0891 0.205953,0.202459 0.205953,0.251919 0,0.04945 0.09229,0.273653 0.205087,0.498228 0.112793,0.224573 0.254884,0.622261 0.315736,0.88376 0.06086,0.26149 0.144506,0.587745 0.185873,0.725003 0.04137,0.137257 0.05224,0.286726 0.02417,0.332154 -0.02808,0.04543 0.01947,0.160515 0.105657,0.255747 0.09919,0.109606 0.149282,0.283437 0.136468,0.473622 -0.01951,0.289643 -0.0091,0.30046 0.287376,0.30046 0.36647,0 0.378577,0.04493 0.08535,0.316673 -0.286698,0.265699 -0.59158,0.262708 -0.804436,-0.0079 z M 21.168612,28.413917 c -0.145891,-0.10668 -0.136544,-0.151531 0.157467,-0.756232 0.171908,-0.353552 0.338278,-0.730261 0.369722,-0.837126 0.03144,-0.106856 0.387485,-0.53806 0.791204,-0.958171 0.40372,-0.420156 0.734518,-0.800042 0.735112,-0.844177 6.48e-4,-0.04414 0.06867,-0.154941 0.151289,-0.246225 0.14224,-0.157169 0.142101,-0.180093 -0.0025,-0.432077 -0.232109,-0.404427 -0.02738,-0.678766 0.506552,-0.678766 0.363636,0 0.40373,-0.02405 0.617219,-0.370223 0.598706,-0.970808 1.199199,-0.742442 0.777351,0.295618 -0.120719,0.297106 -0.2195,0.570852 -0.2195,0.608326 0,0.03747 -0.0882,0.166053 -0.196001,0.285731 -1.061404,1.178387 -1.202917,1.952301 -0.536258,2.932399 0.162421,0.238781 0.198519,0.375984 0.155498,0.59109 -0.113797,0.568964 -0.651364,0.576379 -1.023492,0.01411 -0.308366,-0.465975 -0.553076,-0.461171 -1.280038,0.02513 -0.704058,0.471001 -0.811973,0.510855 -1.0037,0.370669 z m 13.160904,-1.290166 c -0.139888,-0.392236 -0.352131,-2.786333 -0.322425,-3.636903 0.01629,-0.466375 0.09729,-1.136017 0.147191,-1.216668 0.03254,-0.05265 0.07916,-0.555019 0.103613,-1.116411 0.04556,-1.046257 0.105296,-1.238411 0.384858,-1.238411 0.194979,0 0.340841,0.25021 0.340841,0.584668 0,0.136217 0.0621,0.336335 0.138003,0.444697 0.11453,0.163515 0.120402,0.244578 0.03453,0.476715 -0.0679,0.183578 -0.116723,1.192788 -0.142042,2.93658 -0.04387,3.020765 -0.02461,2.874697 -0.378939,2.874697 -0.146737,0 -0.284273,-0.049 -0.305635,-0.108891 z M 22.373757,21.958438 c -0.396091,-0.277434 -0.211443,-1.203101 0.368718,-1.848324 0.434223,-0.482969 0.652358,-1.011691 0.654226,-1.585925 0.0015,-0.438452 0.203397,-1.034734 0.499323,-1.474143 0.109356,-0.162393 0.198835,-0.326357 0.198835,-0.364351 0,-0.185148 1.36478,-0.304603 1.682188,-0.147237 0.283409,0.14051 0.135139,0.433667 -0.397281,0.785519 -0.589128,0.389327 -0.65351,0.554229 -0.174221,0.44622 0.496099,-0.11179 1.092344,-0.07653 1.413283,0.08359 0.281327,0.140343 0.292971,0.138597 0.48951,-0.07347 0.355959,-0.384084 0.778365,-0.231635 1.40743,0.507946 0.535068,0.629082 0.607981,1.001377 0.242952,1.24064 -0.117913,0.07726 -0.24049,0.222725 -0.272399,0.323272 -0.252373,0.795164 -1.315439,1.901103 -2.064544,2.1478 -0.576817,0.189924 -0.995152,-0.285583 -0.617971,-0.702396 0.07752,-0.08565 0.166779,-0.282089 0.198372,-0.436527 0.05107,-0.24969 0.12463,-0.308339 0.664121,-0.529439 0.506664,-0.207653 1.062147,-0.642165 0.957427,-0.748975 -0.01489,-0.0152 -0.217186,0.06766 -0.449518,0.184127 -0.606308,0.303935 -1.491891,0.463921 -1.859104,0.335889 -0.413726,-0.144226 -0.497762,-0.12687 -0.558549,0.115339 -0.04884,0.194589 -0.979447,0.916712 -1.181359,0.916712 -0.03953,0 -0.197636,0.196 -0.35136,0.435551 -0.153724,0.239553 -0.311404,0.435554 -0.350402,0.435554 -0.039,0 -0.123405,0.02015 -0.187574,0.04477 -0.06417,0.02462 -0.204578,-0.0168 -0.31201,-0.09205 z m 18.329005,-3.160884 c -0.07929,-0.08762 -0.144171,-0.191904 -0.144171,-0.231756 0,-0.238734 -1.654591,-2.312356 -2.656061,-3.328787 -0.482561,-0.489743 -0.748576,-0.842765 -1.430845,-1.898872 -0.271432,-0.420148 -0.258906,-0.404417 -0.796195,-1.000356 -0.438109,-0.485923 -0.53349,-0.751436 -0.301873,-0.840312 0.215412,-0.08266 1.918386,1.66416 2.440957,2.503768 0.265735,0.426967 0.481035,0.694023 0.92682,1.149582 0.272361,0.278363 0.583765,0.635354 0.692006,0.793323 0.10824,0.157961 0.302486,0.358237 0.43166,0.44506 0.129175,0.08682 0.364183,0.376615 0.522254,0.644005 0.158063,0.267381 0.396528,0.612719 0.529913,0.767401 0.538803,0.624845 0.32943,1.597817 -0.214503,0.996731 z M 28.589042,17.39821 c -0.291465,-0.322063 -0.34926,-1.809764 -0.07784,-2.003592 0.0405,-0.02892 0.14224,-0.160386 0.226088,-0.292144 0.431939,-0.678783 1.043935,-0.06872 0.69524,0.693011 -0.211778,0.462584 -0.212968,0.477896 -0.07098,0.911991 0.217864,0.666073 -0.341882,1.166585 -0.772502,0.690734 z m -2.546696,-1.334489 c -0.43495,-0.140037 -0.587958,-0.697145 -0.219212,-0.798137 0.07942,-0.02175 0.327833,-0.06443 0.552045,-0.09484 0.224201,-0.03041 0.50813,-0.134341 0.63094,-0.230948 0.602797,-0.47416 0.990135,0.07589 0.470379,0.667895 -0.446006,0.507974 -0.861991,0.640241 -1.434189,0.456022 z m -0.510362,-5.025378 c -0.39635,-0.06161 -0.415074,-0.182741 -0.08205,-0.530877 0.451247,-0.471745 0.938658,-1.1214269 1.354186,-1.8051183 0.828123,-1.3625496 1.473309,-0.9209184 0.811036,0.5551673 -0.06773,0.1509736 -0.123154,0.3122979 -0.123154,0.3584967 0,0.272397 -1.316368,1.5363063 -1.550616,1.4888243 -0.03353,-0.0068 -0.217762,-0.03674 -0.409405,-0.06653 z m 4.50736,-0.10901 c -0.203601,-0.203602 0.0072,-2.9641768 0.249104,-3.2617943 0.04287,-0.052744 0.102925,-0.2781396 0.133458,-0.5008837 l 0.05551,-0.404982 h -0.273169 c -0.370539,0 -0.371133,-0.3873946 -0.0021,-1.3945148 0.149068,-0.4068498 0.28956,-0.8573265 0.312204,-1.0010974 0.290442,-1.8434927 1.471728,-0.00146 1.632941,2.5464174 0.05973,0.9436755 0.03105,1.0669781 -0.356286,1.5326823 -0.112662,0.1354288 -0.204836,0.3141366 -0.204836,0.3971222 0,0.082987 -0.140735,0.3837787 -0.312735,0.668425 -0.172,0.2846446 -0.399576,0.7331403 -0.505715,0.9966383 -0.202171,0.501915 -0.484698,0.665562 -0.728385,0.421875 z M 19.691066,8.4545546 c 0.33786,-0.47549 0.874943,-1.1269087 1.193533,-1.4475698 0.572811,-0.5765923 0.623645,-0.6816827 0.329755,-0.6816827 -0.08297,0 -0.380239,-0.1233219 -0.660591,-0.274043 C 20.273411,5.9005364 19.898999,5.7045715 19.721738,5.6157897 19.544479,5.5270048 19.368074,5.4043821 19.329735,5.343307 19.291396,5.2822239 19.159799,5.1686392 19.037286,5.0909042 18.914783,5.0131644 18.659983,4.7203751 18.471062,4.4402559 18.282151,4.1601352 18.073141,3.8734463 18.006603,3.8031535 17.940057,3.7328623 17.83278,3.5561972 17.768202,3.4105665 17.582366,2.9931782 16.908712,2.0957759 16.816722,2.1439073 c -0.106715,0.05575 -0.04913,1.7114579 0.06968,2.0034978 0.04872,0.1197806 0.119651,0.3745724 0.157636,0.5662238 0.268727,1.3558601 0.659736,2.4620496 1.000726,2.8311188 0.296605,0.3210041 0.735706,1.2014309 0.735706,1.4751664 0,0.5780716 0.174742,0.4694965 0.910152,-0.5654809 z"
     id="path9"
     style="fill:#5962d7;fill-opacity:1;stroke-width:0.092918" />
</svg>
